HIERARCHY
ROOT Root
{
  OFFSET 0.0 0.0 0.0
  CHANNELS 6 Xposition Yposition Zposition Zrotation Yrotation Xrotation
  JOINT Hips
  {
    OFFSET 0.0 100.0 0.0
    CHANNELS 6 Xposition Yposition Zposition Zrotation Yrotation Xrotation
    JOINT Spine1
    {
      OFFSET 5.003913 -0.037094 -0.013727
      CHANNELS 3 Zrotation Yrotation Xrotation
      JOINT Spine2
      {
        OFFSET 7.125363 -1e-06 0.0
        CHANNELS 3 Zrotation Yrotation Xrotation
        JOINT Chest
        {
          OFFSET 7.594027 1e-06 0.0
          CHANNELS 3 Zrotation Yrotation Xrotation
          JOINT Neck1
          {
            OFFSET 26.313086 -0.460272 -0.181672
            CHANNELS 3 Zrotation Yrotation Xrotation
            JOINT Neck2
            {
              OFFSET 8.045911 0.0 0.0
              CHANNELS 3 Zrotation Yrotation Xrotation
              JOINT Head
              {
                OFFSET 6.432774 0.0 0.0
                CHANNELS 3 Zrotation Yrotation Xrotation
                JOINT HeadEnd
                {
                  OFFSET 16.169773 0.06451 0.00362
                  CHANNELS 3 Zrotation Yrotation Xrotation
                }
                JOINT Jaw
                {
                  OFFSET 0.108741 3.12938 0.002639
                  CHANNELS 3 Zrotation Yrotation Xrotation
                }
                JOINT LeftEye
                {
                  OFFSET 4.45173 8.166359 3.206392
                  CHANNELS 3 Zrotation Yrotation Xrotation
                }
                JOINT RightEye
                {
                  OFFSET 4.436895 8.135758 -3.222429
                  CHANNELS 3 Zrotation Yrotation Xrotation
                }
              }
            }
          }
          JOINT LeftShoulder
          {
            OFFSET 23.218927 5.195579 1.621656
            CHANNELS 3 Zrotation Yrotation Xrotation
            JOINT LeftArm
            {
              OFFSET 15.902118 2e-06 -2e-06
              CHANNELS 3 Zrotation Yrotation Xrotation
              JOINT LeftForeArm
              {
                OFFSET 28.739307 0.0 -1e-06
                CHANNELS 3 Zrotation Yrotation Xrotation
                JOINT LeftHand
                {
                  OFFSET 27.093981 -4e-06 0.0
                  CHANNELS 3 Zrotation Yrotation Xrotation
                  JOINT LeftHandThumb1
                  {
                    OFFSET 2.276781 3.380274 0.83384
                    CHANNELS 3 Zrotation Yrotation Xrotation
                    JOINT LeftHandThumb2
                    {
                      OFFSET 4.705309 -1e-06 -1e-06
                      CHANNELS 3 Zrotation Yrotation Xrotation
                      JOINT LeftHandThumb3
                      {
                        OFFSET 2.798515 0.0 3e-06
                        CHANNELS 3 Zrotation Yrotation Xrotation
                        JOINT LeftHandThumbEnd
                        {
                          OFFSET 3.180793 4e-06 -4e-06
                          CHANNELS 3 Zrotation Yrotation Xrotation
                        }
                      }
                    }
                  }
                  JOINT LeftHandIndex1
                  {
                    OFFSET 3.247786 2.352677 0.137192
                    CHANNELS 3 Zrotation Yrotation Xrotation
                    JOINT LeftHandIndex2
                    {
                      OFFSET 6.367095 1e-06 0.0
                      CHANNELS 3 Zrotation Yrotation Xrotation
                      JOINT LeftHandIndex3
                      {
                        OFFSET 3.662364 0.0 0.0
                        CHANNELS 3 Zrotation Yrotation Xrotation
                        JOINT LeftHandIndex4
                        {
                          OFFSET 2.329242 4e-06 -4e-06
                          CHANNELS 3 Zrotation Yrotation Xrotation
                          JOINT LeftHandIndexEnd
                          {
                            OFFSET 2.767823 1e-06 0.0
                            CHANNELS 3 Zrotation Yrotation Xrotation
                          }
                        }
                      }
                    }
                  }
                  JOINT LeftHandMiddle1
                  {
                    OFFSET 3.163612 0.945023 -0.406112
                    CHANNELS 3 Zrotation Yrotation Xrotation
                    JOINT LeftHandMiddle2
                    {
                      OFFSET 6.276789 3e-06 0.0
                      CHANNELS 3 Zrotation Yrotation Xrotation
                      JOINT LeftHandMiddle3
                      {
                        OFFSET 4.35652 -1e-06 4e-06
                        CHANNELS 3 Zrotation Yrotation Xrotation
                        JOINT LeftHandMiddle4
                        {
                          OFFSET 2.996877 0.0 8e-06
                          CHANNELS 3 Zrotation Yrotation Xrotation
                          JOINT LeftHandMiddleEnd
                          {
                            OFFSET 2.323256 3e-06 -4e-06
                            CHANNELS 3 Zrotation Yrotation Xrotation
                          }
                        }
                      }
                    }
                  }
                  JOINT LeftHandRing1
                  {
                    OFFSET 2.882606 -0.309162 0.107445
                    CHANNELS 3 Zrotation Yrotation Xrotation
                    JOINT LeftHandRing2
                    {
                      OFFSET 6.033198 0.0 4e-06
                      CHANNELS 3 Zrotation Yrotation Xrotation
                      JOINT LeftHandRing3
                      {
                        OFFSET 4.350578 3e-06 0.0
                        CHANNELS 3 Zrotation Yrotation Xrotation
                        JOINT LeftHandRing4
                        {
                          OFFSET 2.651321 2e-06 -7e-06
                          CHANNELS 3 Zrotation Yrotation Xrotation
                          JOINT LeftHandRingEnd
                          {
                            OFFSET 1.937663 1e-06 -4e-06
                            CHANNELS 3 Zrotation Yrotation Xrotation
                          }
                        }
                      }
                    }
                  }
                  JOINT LeftHandPinky1
                  {
                    OFFSET 2.865315 -1.525436 0.575687
                    CHANNELS 3 Zrotation Yrotation Xrotation
                    JOINT LeftHandPinky2
                    {
                      OFFSET 5.54936 1e-06 -8e-06
                      CHANNELS 3 Zrotation Yrotation Xrotation
                      JOINT LeftHandPinky3
                      {
                        OFFSET 3.070974 0.0 -4e-06
                        CHANNELS 3 Zrotation Yrotation Xrotation
                        JOINT LeftHandPinky4
                        {
                          OFFSET 1.549672 1e-06 0.0
                          CHANNELS 3 Zrotation Yrotation Xrotation
                          JOINT LeftHandPinkyEnd
                          {
                            OFFSET 1.952123 0.0 0.0
                            CHANNELS 3 Zrotation Yrotation Xrotation
                          }
                        }
                      }
                    }
                  }
                }
              }
            }
          }
          JOINT RightShoulder
          {
            OFFSET 23.161716 5.296122 -1.380114
            CHANNELS 3 Zrotation Yrotation Xrotation
            JOINT RightArm
            {
              OFFSET -16.027195 -2e-06 1.1e-05
              CHANNELS 3 Zrotation Yrotation Xrotation
              JOINT RightForeArm
              {
                OFFSET -28.736639 4e-06 2e-06
                CHANNELS 3 Zrotation Yrotation Xrotation
                JOINT RightHand
                {
                  OFFSET -27.133619 6e-06 0.0
                  CHANNELS 3 Zrotation Yrotation Xrotation
                  JOINT RightHandThumb1
                  {
                    OFFSET -2.274328 -3.351035 -0.83067
                    CHANNELS 3 Zrotation Yrotation Xrotation
                    JOINT RightHandThumb2
                    {
                      OFFSET -4.703594 -3e-06 2e-06
                      CHANNELS 3 Zrotation Yrotation Xrotation
                      JOINT RightHandThumb3
                      {
                        OFFSET -2.794935 -4e-06 -3e-06
                        CHANNELS 3 Zrotation Yrotation Xrotation
                        JOINT RightHandThumbEnd
                        {
                          OFFSET -3.183852 4e-06 1e-06
                          CHANNELS 3 Zrotation Yrotation Xrotation
                        }
                      }
                    }
                  }
                  JOINT RightHandIndex1
                  {
                    OFFSET -3.253496 -2.33755 -0.127667
                    CHANNELS 3 Zrotation Yrotation Xrotation
                    JOINT RightHandIndex2
                    {
                      OFFSET -6.344434 0.0 0.0
                      CHANNELS 3 Zrotation Yrotation Xrotation
                      JOINT RightHandIndex3
                      {
                        OFFSET -3.654871 0.0 -8e-06
                        CHANNELS 3 Zrotation Yrotation Xrotation
                        JOINT RightHandIndex4
                        {
                          OFFSET -2.327586 -1e-06 0.0
                          CHANNELS 3 Zrotation Yrotation Xrotation
                          JOINT RightHandIndexEnd
                          {
                            OFFSET -2.770001 3e-06 8e-06
                            CHANNELS 3 Zrotation Yrotation Xrotation
                          }
                        }
                      }
                    }
                  }
                  JOINT RightHandMiddle1
                  {
                    OFFSET -3.168223 -0.944764 0.411762
                    CHANNELS 3 Zrotation Yrotation Xrotation
                    JOINT RightHandMiddle2
                    {
                      OFFSET -6.266691 -1e-06 -4e-06
                      CHANNELS 3 Zrotation Yrotation Xrotation
                      JOINT RightHandMiddle3
                      {
                        OFFSET -4.348901 0.0 0.0
                        CHANNELS 3 Zrotation Yrotation Xrotation
                        JOINT RightHandMiddle4
                        {
                          OFFSET -3.00024 2e-06 -4e-06
                          CHANNELS 3 Zrotation Yrotation Xrotation
                          JOINT RightHandMiddleEnd
                          {
                            OFFSET -2.321477 -4e-06 -4e-06
                            CHANNELS 3 Zrotation Yrotation Xrotation
                          }
                        }
                      }
                    }
                  }
                  JOINT RightHandRing1
                  {
                    OFFSET -2.885654 0.293261 -0.119232
                    CHANNELS 3 Zrotation Yrotation Xrotation
                    JOINT RightHandRing2
                    {
                      OFFSET -6.032835 -1e-06 -4e-06
                      CHANNELS 3 Zrotation Yrotation Xrotation
                      JOINT RightHandRing3
                      {
                        OFFSET -4.33881 0.0 -4e-06
                        CHANNELS 3 Zrotation Yrotation Xrotation
                        JOINT RightHandRing4
                        {
                          OFFSET -2.654903 -4e-06 -4e-06
                          CHANNELS 3 Zrotation Yrotation Xrotation
                          JOINT RightHandRingEnd
                          {
                            OFFSET -1.935122 0.0 4e-06
                            CHANNELS 3 Zrotation Yrotation Xrotation
                          }
                        }
                      }
                    }
                  }
                  JOINT RightHandPinky1
                  {
                    OFFSET -2.866241 1.503904 -0.60527
                    CHANNELS 3 Zrotation Yrotation Xrotation
                    JOINT RightHandPinky2
                    {
                      OFFSET -5.553177 -2e-06 0.0
                      CHANNELS 3 Zrotation Yrotation Xrotation
                      JOINT RightHandPinky3
                      {
                        OFFSET -3.062664 -1e-06 -4e-06
                        CHANNELS 3 Zrotation Yrotation Xrotation
                        JOINT RightHandPinky4
                        {
                          OFFSET -1.546529 2e-06 4e-06
                          CHANNELS 3 Zrotation Yrotation Xrotation
                          JOINT RightHandPinkyEnd
                          {
                            OFFSET -1.952341 0.0 -4e-06
                            CHANNELS 3 Zrotation Yrotation Xrotation
                          }
                        }
                      }
                    }
                  }
                }
              }
            }
          }
        }
      }
    }
    JOINT LeftLeg
    {
      OFFSET -8.443107 2.567604 10.043214
      CHANNELS 3 Zrotation Yrotation Xrotation
      JOINT LeftShin
      {
        OFFSET 43.229198 1e-06 -1e-06
        CHANNELS 3 Zrotation Yrotation Xrotation
        JOINT LeftFoot
        {
          OFFSET 42.298611 1e-06 1e-06
          CHANNELS 3 Zrotation Yrotation Xrotation
          JOINT LeftToeBase
          {
            OFFSET 14.165858 1e-06 0.0
            CHANNELS 3 Zrotation Yrotation Xrotation
            JOINT LeftToeEnd
            {
              OFFSET 6.7141 -0.234461 0.0
              CHANNELS 3 Zrotation Yrotation Xrotation
            }
          }
        }
      }
    }
    JOINT RightLeg
    {
      OFFSET -8.303923 2.592729 -10.047278
      CHANNELS 3 Zrotation Yrotation Xrotation
      JOINT RightShin
      {
        OFFSET -43.369682 0.0 1e-06
        CHANNELS 3 Zrotation Yrotation Xrotation
        JOINT RightFoot
        {
          OFFSET -42.260784 4e-06 2e-06
          CHANNELS 3 Zrotation Yrotation Xrotation
          JOINT RightToeBase
          {
            OFFSET -14.222245 -2e-06 -1e-06
            CHANNELS 3 Zrotation Yrotation Xrotation
            JOINT RightToeEnd
            {
              OFFSET -6.660062 0.232574 -2e-06
              CHANNELS 3 Zrotation Yrotation Xrotation
            }
          }
        }
      }
    }
  }
}
MOTION
Frames: 4
Frame Time: 0.03333333333333333
0.0 0.0 0.0 0.0 -0.0 0.0 -0.014264 57.995369 -36.004841 88.430817 27.375723 90.160744 19.933756 0.98751 0.127817 -2.627755 -0.25176 0.141173 29.712082 -0.994241 -1.060011 20.29759 -3.683575 1.818486 -2.37496 -0.260917 -1.197717 -48.05653 2.389582 -4.739395 0.003457 -0.000142 -0.000516 0.011824 0.027858 0.139024 0.123851 -0.057334 0.12223 0.12268 0.096964 0.145479 -88.574249 -77.92556 107.565331 47.195805 -48.409962 -3.796998 95.807991 -0.872053 -0.597049 6.527927 0.95963 48.593029 17.700245 -26.319983 52.481667 -19.486883 -14.38506 29.432365 0.005979 -8.764816 -0.010971 15.521291 -18.395739 6.473241 -0.576351 -1.79068 -3.899667 -4.820098 -11.073165 -2.930752 0.017227 -21.001875 -0.006077 -5.007888 -25.071712 -4.013311 0.0051 0.002371 -0.003217 -10.612698 -5.69488 -3.570086 10.58575 -17.974583 -3.145314 -0.005629 -13.843471 0.001508 -0.493369 -31.248098 -4.039861 -11.814537 -59.344883 7.69716 -13.965426 -7.170903 -2.893578 13.790343 -8.417588 -3.214913 0.356032 -34.279324 0.746137 -0.963945 -17.768112 2.627121 0.004469 0.004732 -0.001923 -17.328779 -20.125574 -4.214642 21.759975 -1.651566 3.862558 0.007578 -6.350286 0.003697 -1.66886 -22.600317 -6.201766 -0.009953 -0.00234 -0.006987 118.343849 -83.686272 82.276733 50.231251 -46.906879 3.51085 83.536423 -0.424537 -0.639738 25.766136 24.754868 63.792637 22.246492 -20.382364 49.968769 -16.702785 -16.73628 28.47798 -0.002365 -12.692199 -0.002471 16.659798 -18.490015 2.708118 -0.097471 -1.510253 -4.271536 -5.060428 -5.623324 -2.965548 0.000534 -11.017786 0.017199 -6.09922 -15.900556 -3.850385 -0.00291 -0.010253 -0.000662 -10.286505 -5.678179 -4.345891 11.033879 -11.314268 -2.368429 -1.407509 -14.246338 -6.305613 -0.61354 -26.92524 -3.79467 -4.723566 -50.549999 -3.092991 -13.717626 -7.363641 -3.726403 18.157623 -14.06293 -3.236892 -0.000909 -18.796244 -0.009421 -0.436046 -8.461558 2.559303 0.00455 -0.013127 -0.009098 -15.946581 -20.10232 -5.480303 30.454203 -7.223919 1.749131 0.004206 -8.182211 -0.015214 -1.82416 -22.85214 -6.169665 -0.020491 -0.009219 -0.011599 119.828239 -11.179799 -0.481186 93.059425 -0.030076 0.243473 -74.16877 -1.097662 -0.523026 -6.075964 1.591164 2.09214 -1.00548 0.005744 0.000367 -58.103813 -11.244666 -6.633292 92.410706 0.205242 -0.010328 -75.687767 -0.223155 1.737396 -6.671857 0.652802 1.668187 -0.998541 -0.000386 -0.001939 
0.0 0.0 0.0 0.0 -0.0 0.0 -0.046262 57.848595 -36.389679 88.530113 29.284853 90.153015 19.283672 0.987265 0.084404 -2.835585 -0.224459 0.254067 29.459969 -1.074798 -1.042883 20.998055 -3.777143 1.775309 -2.383532 -0.302473 -1.195083 -47.62529 2.315269 -4.689613 0.0 -0.0 0.0 0.014903 0.032537 0.140532 0.106546 -0.045791 0.113972 0.097216 0.094813 0.159356 -92.028618 -77.74987 111.176476 48.733658 -48.003754 -5.16502 93.156418 -0.793609 -0.361417 5.849535 -0.618613 48.668697 17.616295 -26.336542 52.359921 -19.432716 -14.397136 29.37719 0.002294 -8.768888 -0.004556 15.44797 -18.402035 6.500072 -0.607534 -1.800425 -3.904961 -4.810285 -11.047112 -2.927394 0.00396 -20.963831 0.006068 -5.046711 -25.017796 -4.0113 0.000586 -0.002146 0.002971 -10.625782 -5.692319 -3.563336 10.575602 -17.909573 -3.111298 -0.017829 -13.82551 -0.001797 -0.532962 -31.204269 -4.011259 -11.776395 -59.090317 7.587265 -13.966697 -7.147654 -2.874078 13.760232 -8.397289 -3.224327 0.333029 -34.197609 0.791727 -0.971503 -17.72821 2.632307 0.008466 0.00211 0.004097 -17.317921 -20.093561 -4.196308 21.73946 -1.641783 3.856031 0.00069 -6.331169 0.005367 -1.685533 -22.591063 -6.185289 -0.010837 0.003734 -0.008883 113.658302 -83.678818 86.968857 51.171677 -47.493889 2.272749 81.7276 -0.382185 -0.5111 23.824867 23.806072 62.584396 22.123331 -20.361177 49.963608 -16.709543 -16.75626 28.513187 0.003871 -12.684609 0.007928 16.671358 -18.515596 2.730618 -0.112476 -1.511396 -4.279105 -5.039775 -5.612176 -2.955214 -5.6e-05 -11.019856 0.005202 -6.109159 -15.879006 -3.837279 0.007342 0.000131 0.006986 -10.288349 -5.674767 -4.331021 11.024788 -11.304469 -2.381958 -1.37329 -14.223783 -6.314831 -0.644344 -26.93239 -3.829405 -4.563512 -50.494411 -3.241409 -13.702621 -7.361563 -3.71025 18.130451 -14.035579 -3.257132 0.00216 -18.781435 -0.000238 -0.438489 -8.444268 2.545786 0.008565 0.004826 -0.002336 -15.921364 -20.100481 -5.479272 30.413664 -7.169811 1.732577 -0.005347 -8.178965 -0.002508 -1.894798 -22.888166 -6.166016 -0.005519 -0.000871 -0.001586 121.871941 -10.842417 -0.321915 92.711143 -0.064764 0.196701 -73.87114 -1.099984 -0.490813 -6.110077 1.585909 2.083886 -0.997797 0.002659 0.000319 -56.129574 -11.318376 -6.691039 92.120125 0.210098 -0.021224 -75.445084 -0.158158 1.848544 -6.717115 0.663454 1.664832 -0.998807 -0.003462 -3.8e-05 
0.0 0.0 0.0 0.0 -0.0 0.0 -0.153484 57.7066 -36.761375 88.657806 31.028217 90.290199 18.654217 1.005856 0.001479 -3.034131 -0.172212 0.38468 29.227497 -1.075896 -1.082148 21.48328 -3.9591 1.713791 -2.37919 -0.357402 -1.223525 -47.299545 2.193498 -4.657828 -0.003379 0.000863 -0.000102 0.024606 0.036088 0.144513 0.112843 -0.038363 0.115007 0.099236 0.094339 0.164061 -96.158852 -77.764778 115.447151 50.266239 -47.540062 -6.344986 90.265488 -0.765935 -0.249576 5.518047 -1.962364 49.041752 17.587715 -26.318401 52.410233 -19.464336 -14.434975 29.4224 -0.003753 -8.778577 -0.001456 15.486942 -18.456024 6.48527 -0.622068 -1.785102 -3.888914 -4.802146 -11.042353 -2.933152 -0.005822 -20.962698 -0.000325 -5.023441 -25.032879 -4.041926 -0.001053 -0.002508 0.000966 -10.635464 -5.685032 -3.57233 10.562713 -17.902639 -3.109229 0.000833 -13.812367 -0.013511 -0.550514 -31.183653 -4.038871 -11.575327 -59.027901 7.348691 -13.991136 -7.146461 -2.86917 13.770236 -8.372119 -3.213943 0.318242 -34.161926 0.785066 -0.950904 -17.698711 2.607587 0.001859 -0.003412 -0.000126 -17.337952 -20.082655 -4.200932 21.738333 -1.617191 3.851177 -0.015439 -6.33409 0.005938 -1.708781 -22.573429 -6.18652 -0.009303 -0.002019 -0.002595 108.845192 -84.127106 92.857536 51.91011 -48.26981 1.212445 79.77179 -0.296943 -0.394421 22.020241 22.685425 61.64909 22.239271 -20.427162 49.994286 -16.689745 -16.769945 28.496162 0.00717 -12.719824 -0.010994 16.644037 -18.568464 2.723573 -0.085796 -1.522128 -4.283679 -5.048879 -5.601042 -2.953512 0.002274 -11.006138 0.010636 -6.129306 -15.885297 -3.84213 0.004805 -0.000365 -0.001006 -10.270403 -5.681165 -4.343791 11.015756 -11.290587 -2.363839 -1.382379 -14.228213 -6.307725 -0.655723 -26.888308 -3.787396 -4.512465 -50.338593 -3.321944 -13.709749 -7.36583 -3.725824 18.14126 -14.033912 -3.228694 -0.008702 -18.764736 0.016487 -0.429123 -8.438928 2.565299 0.0 -0.004778 -0.007766 -15.94442 -20.082436 -5.474563 30.455404 -7.207993 1.755683 0.001284 -8.158104 0.005634 -1.881524 -22.831926 -6.136151 0.006045 -0.001414 0.009432 123.668961 -10.508333 -0.153247 92.362877 -0.107818 0.172536 -73.591217 -1.058877 -0.383312 -6.115878 1.579726 2.086997 -0.997488 0.001438 -4.9e-05 -54.366592 -11.478284 -6.839426 91.845581 0.211419 -0.006051 -75.212959 -0.179405 2.036322 -6.723705 0.667067 1.670032 -0.991899 -1.3e-05 0.000748 
0.0 0.0 0.0 0.0 -0.0 0.0 -0.235764 57.555653 -37.008972 88.796631 32.592289 90.483086 18.098797 1.050943 -0.013394 -3.243726 -0.125474 0.412171 28.988997 -1.065613 -1.114872 21.714472 -4.170354 1.666629 -2.388186 -0.445567 -1.226415 -46.995461 2.002395 -4.715662 1e-05 -0.00028 1.3e-05 0.031538 0.044149 0.157459 0.105554 -0.02649 0.131016 0.102404 0.100792 0.17546 -99.903748 -77.451752 119.316246 51.704449 -47.094433 -7.410205 87.270775 -0.754629 -0.289371 5.344176 -2.962572 49.758648 17.714102 -26.355497 52.433479 -19.457026 -14.38131 29.398928 -0.00343 -8.759399 -6e-05 15.475788 -18.392115 6.42541 -0.587055 -1.793555 -3.895828 -4.813149 -11.047849 -2.931113 0.018275 -20.952858 0.003639 -5.001061 -24.985733 -4.031091 -0.000238 -0.0 -0.00668 -10.622638 -5.691691 -3.57108 10.586615 -17.897781 -3.100954 0.006902 -13.818698 0.005357 -0.531287 -31.185801 -4.004742 -11.645933 -59.159122 7.476657 -13.953308 -7.150475 -2.884647 13.763356 -8.391398 -3.199476 0.358559 -34.224918 0.786912 -0.951982 -17.750206 2.62934 -0.006107 -0.005338 0.019821 -17.325695 -20.064888 -4.216079 21.7563 -1.647721 3.878057 -0.002162 -6.347859 -0.000245 -1.686664 -22.571579 -6.203298 0.0 0.003941 0.003053 103.749161 -83.959511 97.907776 52.275585 -48.88784 0.169515 77.901131 -0.245819 -0.332486 20.385099 21.650103 60.931332 22.207983 -20.437634 50.004257 -16.675369 -16.743908 28.497784 -0.005109 -12.67913 0.000561 16.595757 -18.564125 2.764452 -0.11351 -1.510646 -4.287437 -5.043294 -5.612156 -2.951236 -0.000633 -11.008047 0.009061 -6.099598 -15.927257 -3.850163 0.003485 0.009514 0.0 -10.292708 -5.673745 -4.35319 11.031046 -11.298856 -2.366787 -1.381695 -14.232589 -6.318674 -0.630594 -26.90041 -3.801375 -4.394754 -50.425098 -3.403577 -13.713181 -7.356061 -3.729452 18.156479 -14.060628 -3.241979 -0.022247 -18.764658 0.033177 -0.442327 -8.465246 2.575782 0.012633 -0.010976 -0.003078 -15.929749 -20.085526 -5.496567 30.418846 -7.201597 1.746476 -0.005887 -8.172973 0.008315 -1.855597 -22.869373 -6.15074 0.003579 -0.000249 0.002922 125.25425 -10.214465 -0.049851 92.133301 -0.110189 0.174398 -73.49308 -1.002155 -0.261467 -6.098626 1.559443 2.08429 -0.995964 0.004695 0.000727 -52.751842 -11.686637 -6.942459 91.78511 0.219013 -0.024934 -75.0812 -0.068191 2.213252 -6.70103 0.675813 1.674933 -1.001683 0.000271 -0.000581 
